<svg width="161" height="35" viewBox="0 0 161 35" fill="none" xmlns="http://www.w3.org/2000/svg">
<path d="M17.3293 33.1538C8.72923 33.1538 1.73035 26.133 1.73035 17.448C1.73035 8.78901 8.7034 1.7422 17.3293 1.7422C25.9552 1.7422 32.9283 8.763 32.9283 17.448C32.9283 26.133 25.9294 33.1538 17.3293 33.1538ZM17.381 0C7.77366 0 0 7.82689 0 17.5C0 27.1731 7.77366 35 17.381 35C26.9883 35 34.762 27.1731 34.762 17.5C34.762 7.8529 26.9883 0 17.381 0ZM26.4976 21.8685V21.7385L25.5679 21.2184V14.2496C27.3757 14.6657 28.7186 16.2779 28.7186 18.2281C28.7186 19.8143 27.8147 21.1924 26.4976 21.8685ZM23.76 21.2184L22.7786 21.7645V21.8425C21.4873 21.1664 20.6092 19.8143 20.6092 18.2281C20.6092 16.3039 21.9522 14.6657 23.76 14.2756V21.2184ZM17.381 29.5654C15.1341 29.5654 13.3263 27.7452 13.3263 25.4829C13.3263 23.5587 14.6692 21.9205 16.4771 21.5045V21.8165L15.3665 22.4666V24.0788L16.4771 23.4287V24.0788L15.3665 24.7288V26.393L16.4771 25.7169V26.315L15.3665 26.9651V28.5513L17.381 27.4071L19.3954 28.5253V26.9391L18.2849 26.315V25.6909L19.3954 26.341V24.6768L18.2849 24.0527V23.3767L19.3954 24.0007V22.4666L18.2849 21.8165V21.5045C20.0927 21.9205 21.4357 23.5327 21.4357 25.4829C21.4099 27.7192 19.602 29.5654 17.381 29.5654ZM11.9058 21.8945V21.7645L10.9761 21.2444V14.3016C12.7839 14.7177 14.1269 16.3299 14.1269 18.2801C14.1269 19.8403 13.223 21.2184 11.9058 21.8945ZM9.1941 21.2184L8.21271 21.7645V21.8425C6.9214 21.1664 6.04331 19.8143 6.04331 18.2281C6.04331 16.2779 7.38627 14.6657 9.1941 14.2496V21.2184ZM25.542 13.0795V10.5312V9.54309L26.7559 9.88113L24.6381 6.1627L22.5462 9.88113L23.76 9.54309V10.5312V13.0795C21.3324 13.4955 19.4471 15.6538 19.4471 18.2281C19.4471 19.3462 19.8086 20.3863 20.4026 21.2444C19.7828 20.7764 19.0338 20.4643 18.2332 20.3083V7.64487L19.4471 8.00891L17.3293 4.31649L15.2374 8.00891L16.4512 7.64487V20.3343C15.6765 20.4643 14.9533 20.7764 14.3335 21.2444C14.9275 20.3863 15.2632 19.3722 15.2632 18.2541C15.2632 15.6798 13.4038 13.5215 10.9503 13.1055V10.5312V9.54309L12.1641 9.88113L10.0464 6.1627L7.95444 9.88113L9.16827 9.54309V10.5312V13.1055C6.74062 13.5215 4.88114 15.6798 4.88114 18.2541C4.88114 20.8284 6.74062 22.9606 9.16827 23.4027L8.18688 23.9487V25.6389L9.14245 25.0929V25.6649L8.16105 26.237V27.8232L10.0205 26.7571L11.8542 27.7972V26.185L10.8986 25.6649V25.0669L11.8542 25.6129V23.9747V23.8967L10.9244 23.3767C11.7251 23.2467 12.4482 22.9086 13.068 22.4666C12.474 23.2987 12.1383 24.3388 12.1383 25.4569C12.1383 28.3432 14.4626 30.6835 17.3293 30.6835C20.196 30.6835 22.5204 28.3432 22.5204 25.4569C22.5204 24.3388 22.1588 23.2987 21.5648 22.4406C22.1846 22.9086 22.9078 23.2207 23.7084 23.3507V23.3767L22.727 23.9227V25.6129L23.7084 25.0669V25.6389L22.727 26.211V27.7972L24.5865 26.7311L26.4201 27.7712V26.159L25.4646 25.6389V25.0669L26.4201 25.6129V23.9747V23.8967L25.4904 23.3767V23.3507C27.9439 22.9346 29.8033 20.7764 29.8033 18.2021C29.8808 15.6538 27.9955 13.4955 25.542 13.0795ZM105.603 23.3507V28.8373L95.0143 28.8113V27.8752H95.35C95.7891 27.8752 96.0473 27.6672 96.2023 27.1991C96.3831 26.7051 96.4605 25.925 96.4605 24.5728V10.8692C96.4605 8.37296 96.2023 7.56686 95.4017 7.56686H95.0143V6.70877H105.603V12.0914H105.035L104.983 11.9094C104.26 9.20505 103.227 8.13893 101.238 8.13893H98.9657V16.5899C100.954 16.5379 101.755 15.8358 101.781 14.2236V13.9636H102.504V20.4383H101.781V20.1783C101.755 18.6441 101.006 18.0461 98.9657 18.0201V27.4071L101.187 27.4331C103.227 27.4331 104.286 26.367 104.983 23.5847L105.035 23.4027H105.603V23.3507ZM69.5497 23.3507V28.8373L58.961 28.8113V27.8752H59.3226C59.7616 27.8752 60.0199 27.6672 60.1749 27.1991C60.3556 26.7051 60.4331 25.925 60.4331 24.5728V10.8692C60.4331 8.37296 60.1749 7.56686 59.3742 7.56686H58.9869V6.70877H69.5756V12.0914H68.9816L68.9299 11.9094C68.2068 9.20505 67.1737 8.13893 65.1851 8.13893H62.9124V16.5899C64.901 16.5379 65.7016 15.8358 65.7275 14.2236V13.9636H66.4506V20.4383H65.7533V20.1783C65.7275 18.6441 64.9785 18.0461 62.9382 18.0201V27.4071L65.1593 27.4331C67.1996 27.4331 68.2584 26.367 68.9557 23.5847L69.0074 23.4027H69.5497V23.3507ZM49.2246 26.471C48.5273 27.0951 47.5975 27.4591 46.6936 27.4591C46.6936 27.4591 45.6864 27.4331 45.3248 27.4331H45.2732C44.9891 27.4331 44.7825 27.3551 44.6534 27.2251C44.3176 26.8871 44.3176 26.055 44.3434 24.9889V24.4688V17.942H46.0738C49.1471 17.9681 50.5675 19.6322 50.5675 23.2207C50.5417 24.5728 50.1027 25.6909 49.2246 26.471ZM45.6864 8.11293C47.9591 8.11293 49.3021 8.81501 49.3021 12.3254C49.3021 13.9896 49.1729 15.2377 48.5014 15.9138C48.0882 16.3299 47.4684 16.5379 46.5903 16.5379C46.5128 16.5379 46.4612 16.5379 46.3837 16.5379H44.3434V8.08692L45.6864 8.11293ZM49.8702 17.188C51.2132 16.2519 51.8588 14.6917 51.833 12.4294C51.833 8.37296 49.9994 6.76077 45.3507 6.70877L40.4695 6.68276V7.69688H40.8053C41.6317 7.69688 41.89 8.39896 41.89 10.6092V24.1828C41.89 26.055 41.8125 27.2251 41.3734 27.6672C41.2185 27.8232 41.0377 27.8752 40.702 27.8752H40.4437V28.7593H46.487C50.7741 28.7593 53.021 26.8091 53.021 23.1686C53.0727 19.9963 52.0138 18.0201 49.8702 17.188ZM147.803 19.0602L150.515 11.3373L153.717 19.0862L147.803 19.0602ZM160.845 27.9272C160.354 27.8232 159.476 26.9391 158.934 25.6389L151.057 6.03269L145.065 23.5067C143.981 26.549 143.309 27.8232 141.889 27.9012L141.63 27.9272V28.7853L147.415 28.8113V27.9532L147.183 27.9272C146.253 27.8492 145.685 27.2251 145.685 26.289C145.685 25.7429 145.892 24.8328 146.305 23.6887L147.312 20.4903H154.182L155.783 24.6768C156.145 25.5349 156.274 26.341 156.274 26.653C156.274 27.4071 155.886 27.9272 155.344 27.9272H154.957V28.8113H161V27.9792L160.845 27.9272ZM138.221 8.08692H137.085V24.4948C137.085 26.9911 137.343 27.7972 138.196 27.7972H138.531V28.7853H133.185V27.7972H133.521C134.347 27.7972 134.632 26.9911 134.632 24.4948V8.11293H133.495C131.481 8.13893 130.396 9.17905 129.699 11.8574L129.647 12.0394H128.976V6.68276H142.741V12.0654H142.044L141.992 11.8834C141.295 9.20505 140.236 8.13893 138.221 8.08692ZM125.128 6.68276V12.0654H124.43L124.379 11.8834C123.681 9.20505 122.597 8.13893 120.582 8.11293H119.446V24.5208C119.446 27.0171 119.73 27.8232 120.556 27.8232H120.892V28.8113H115.572V27.8232H115.908C116.347 27.8232 116.605 27.6412 116.76 27.1471C116.941 26.653 116.992 25.873 116.992 24.5208V8.13893H115.856C113.842 8.16493 112.757 9.20505 112.06 11.8834L112.008 12.0654H111.311V6.70877L125.128 6.68276ZM80.9907 16.5379V8.08692H82.4628C85.407 8.11293 85.9493 9.6211 85.9493 12.5854C85.9493 13.8596 85.846 15.2377 85.1229 15.9658C84.7355 16.3559 84.1931 16.5379 83.47 16.5379H80.9907ZM84.9679 17.89C87.2923 17.136 88.4803 15.3158 88.4803 12.4814C88.4803 8.55498 86.4658 6.73477 82.127 6.70877L77.1426 6.68276V7.67088H77.4783C78.3048 7.67088 78.563 8.42496 78.563 10.9733V24.5468C78.563 26.133 78.4856 27.1991 78.0723 27.6152C77.9174 27.7712 77.7366 27.8492 77.4009 27.8492H77.1426V28.7333H82.4111V28.1092L82.3595 27.8492H82.1012C81.2231 27.8492 80.9649 27.1211 80.9649 24.5468V17.9681H82.4628C82.8244 19.5282 85.2778 28.9673 90.0298 28.9933V28.8113C87.6022 27.0171 85.3553 19.2422 84.9679 17.89Z" fill="white"/>
</svg>
